<svg xmlns="http://www.w3.org/2000/svg" xmlns:xlink="http://www.w3.org/1999/xlink" width="100" zoomAndPan="magnify" viewBox="0 0 75 30.000001" height="40" preserveAspectRatio="xMidYMid meet" version="1.0"><defs><g/><clipPath id="48e1502c02"><path d="M 66 17 L 73.789062 17 L 73.789062 27 L 66 27 Z M 66 17 " clip-rule="nonzero"/></clipPath></defs><g fill="#5e17eb" fill-opacity="1"><g transform="translate(2.202666, 24.244768)"><g><path d="M 22.796875 -2.5 C 22.796875 -1.757812 22.90625 -1.25 23.125 -0.96875 C 23.351562 -0.695312 23.75 -0.5625 24.3125 -0.5625 L 24.3125 0 C 22.375 -0.0703125 21.117188 -0.109375 20.546875 -0.109375 C 19.972656 -0.109375 18.789062 -0.0703125 17 0 L 17 -0.5625 C 17.363281 -0.5625 17.613281 -0.695312 17.75 -0.96875 C 17.894531 -1.238281 17.96875 -1.75 17.96875 -2.5 L 17.96875 -11.234375 C 17.96875 -11.804688 17.863281 -12.226562 17.65625 -12.5 C 17.445312 -12.78125 17.113281 -12.921875 16.65625 -12.921875 C 16.1875 -12.921875 15.757812 -12.722656 15.375 -12.328125 C 14.988281 -11.929688 14.753906 -11.46875 14.671875 -10.9375 C 14.703125 -10.5 14.71875 -10.113281 14.71875 -9.78125 L 14.71875 -2.5 C 14.71875 -1.75 14.804688 -1.238281 14.984375 -0.96875 C 15.160156 -0.695312 15.484375 -0.5625 15.953125 -0.5625 L 15.953125 0 C 14.160156 -0.0703125 13 -0.109375 12.46875 -0.109375 C 11.894531 -0.109375 10.710938 -0.0703125 8.921875 0 L 8.921875 -0.5625 C 9.273438 -0.5625 9.523438 -0.695312 9.671875 -0.96875 C 9.816406 -1.25 9.890625 -1.757812 9.890625 -2.5 L 9.890625 -11.234375 C 9.890625 -11.804688 9.804688 -12.226562 9.640625 -12.5 C 9.484375 -12.78125 9.21875 -12.921875 8.84375 -12.921875 C 8.320312 -12.921875 7.867188 -12.734375 7.484375 -12.359375 C 7.097656 -11.992188 6.90625 -11.535156 6.90625 -10.984375 L 6.90625 -2.5 C 6.90625 -1.75 6.972656 -1.238281 7.109375 -0.96875 C 7.253906 -0.695312 7.507812 -0.5625 7.875 -0.5625 L 7.875 0 C 6.226562 -0.0703125 5.132812 -0.109375 4.59375 -0.109375 C 3.988281 -0.109375 2.644531 -0.0703125 0.5625 0 L 0.5625 -0.5625 C 1.113281 -0.5625 1.5 -0.695312 1.71875 -0.96875 C 1.945312 -1.25 2.0625 -1.757812 2.0625 -2.5 L 2.0625 -11.015625 C 2.0625 -11.835938 1.945312 -12.4375 1.71875 -12.8125 C 1.5 -13.1875 1.113281 -13.375 0.5625 -13.375 L 0.5625 -13.9375 C 1.132812 -13.882812 1.691406 -13.859375 2.234375 -13.859375 C 4.085938 -13.859375 5.644531 -13.984375 6.90625 -14.234375 L 6.90625 -12.296875 C 7.65625 -13.640625 8.988281 -14.3125 10.90625 -14.3125 C 12.332031 -14.3125 13.34375 -13.953125 13.9375 -13.234375 C 14.207031 -12.921875 14.40625 -12.503906 14.53125 -11.984375 C 14.976562 -12.835938 15.570312 -13.4375 16.3125 -13.78125 C 17.0625 -14.132812 17.953125 -14.3125 18.984375 -14.3125 C 20.421875 -14.3125 21.4375 -13.953125 22.03125 -13.234375 C 22.289062 -12.921875 22.484375 -12.488281 22.609375 -11.9375 C 22.734375 -11.394531 22.796875 -10.675781 22.796875 -9.78125 Z M 22.796875 -2.5 "/></g></g></g><g fill="#5e17eb" fill-opacity="1"><g transform="translate(26.801767, 24.244768)"><g><path d="M 4.328125 -21 C 5.253906 -21 5.972656 -20.800781 6.484375 -20.40625 C 6.992188 -20.019531 7.25 -19.445312 7.25 -18.6875 C 7.25 -17.9375 6.992188 -17.363281 6.484375 -16.96875 C 5.972656 -16.582031 5.253906 -16.390625 4.328125 -16.390625 C 3.378906 -16.390625 2.648438 -16.582031 2.140625 -16.96875 C 1.640625 -17.363281 1.390625 -17.9375 1.390625 -18.6875 C 1.390625 -19.445312 1.640625 -20.019531 2.140625 -20.40625 C 2.648438 -20.800781 3.378906 -21 4.328125 -21 Z M 6.90625 -2.5 C 6.90625 -1.757812 7.015625 -1.25 7.234375 -0.96875 C 7.460938 -0.695312 7.851562 -0.5625 8.40625 -0.5625 L 8.40625 0 C 6.46875 -0.0703125 5.195312 -0.109375 4.59375 -0.109375 C 3.988281 -0.109375 2.644531 -0.0703125 0.5625 0 L 0.5625 -0.5625 C 1.113281 -0.5625 1.5 -0.695312 1.71875 -0.96875 C 1.945312 -1.25 2.0625 -1.757812 2.0625 -2.5 L 2.0625 -11.015625 C 2.0625 -11.835938 1.945312 -12.4375 1.71875 -12.8125 C 1.5 -13.1875 1.113281 -13.375 0.5625 -13.375 L 0.5625 -13.9375 C 1.132812 -13.882812 1.691406 -13.859375 2.234375 -13.859375 C 4.085938 -13.859375 5.644531 -13.984375 6.90625 -14.234375 Z M 6.90625 -2.5 "/></g></g></g><g fill="#5e17eb" fill-opacity="1"><g transform="translate(35.663888, 24.244768)"><g><path d="M 11.171875 -14.3125 C 12.609375 -14.3125 13.617188 -13.953125 14.203125 -13.234375 C 14.472656 -12.921875 14.671875 -12.488281 14.796875 -11.9375 C 14.921875 -11.394531 14.984375 -10.675781 14.984375 -9.78125 L 14.984375 -2.5 C 14.984375 -1.757812 15.09375 -1.25 15.3125 -0.96875 C 15.539062 -0.695312 15.929688 -0.5625 16.484375 -0.5625 L 16.484375 0 C 14.554688 -0.0703125 13.304688 -0.109375 12.734375 -0.109375 C 12.117188 -0.109375 10.847656 -0.0703125 8.921875 0 L 8.921875 -0.5625 C 9.378906 -0.5625 9.695312 -0.695312 9.875 -0.96875 C 10.0625 -1.25 10.15625 -1.757812 10.15625 -2.5 L 10.15625 -11.234375 C 10.15625 -11.804688 10.050781 -12.226562 9.84375 -12.5 C 9.632812 -12.78125 9.300781 -12.921875 8.84375 -12.921875 C 8.320312 -12.921875 7.867188 -12.734375 7.484375 -12.359375 C 7.097656 -11.992188 6.90625 -11.535156 6.90625 -10.984375 L 6.90625 -2.5 C 6.90625 -1.757812 6.992188 -1.25 7.171875 -0.96875 C 7.347656 -0.695312 7.671875 -0.5625 8.140625 -0.5625 L 8.140625 0 C 6.347656 -0.0703125 5.164062 -0.109375 4.59375 -0.109375 C 3.988281 -0.109375 2.644531 -0.0703125 0.5625 0 L 0.5625 -0.5625 C 1.113281 -0.5625 1.5 -0.695312 1.71875 -0.96875 C 1.945312 -1.25 2.0625 -1.757812 2.0625 -2.5 L 2.0625 -11.015625 C 2.0625 -11.835938 1.945312 -12.4375 1.71875 -12.8125 C 1.5 -13.1875 1.113281 -13.375 0.5625 -13.375 L 0.5625 -13.9375 C 1.132812 -13.882812 1.691406 -13.859375 2.234375 -13.859375 C 4.085938 -13.859375 5.644531 -13.984375 6.90625 -14.234375 L 6.90625 -12.296875 C 7.707031 -13.640625 9.128906 -14.3125 11.171875 -14.3125 Z M 11.171875 -14.3125 "/></g></g></g><g fill="#5e17eb" fill-opacity="1"><g transform="translate(52.448204, 24.244768)"><g><path d="M 4.328125 -21 C 5.253906 -21 5.972656 -20.800781 6.484375 -20.40625 C 6.992188 -20.019531 7.25 -19.445312 7.25 -18.6875 C 7.25 -17.9375 6.992188 -17.363281 6.484375 -16.96875 C 5.972656 -16.582031 5.253906 -16.390625 4.328125 -16.390625 C 3.378906 -16.390625 2.648438 -16.582031 2.140625 -16.96875 C 1.640625 -17.363281 1.390625 -17.9375 1.390625 -18.6875 C 1.390625 -19.445312 1.640625 -20.019531 2.140625 -20.40625 C 2.648438 -20.800781 3.378906 -21 4.328125 -21 Z M 6.90625 -2.5 C 6.90625 -1.757812 7.015625 -1.25 7.234375 -0.96875 C 7.460938 -0.695312 7.851562 -0.5625 8.40625 -0.5625 L 8.40625 0 C 6.46875 -0.0703125 5.195312 -0.109375 4.59375 -0.109375 C 3.988281 -0.109375 2.644531 -0.0703125 0.5625 0 L 0.5625 -0.5625 C 1.113281 -0.5625 1.5 -0.695312 1.71875 -0.96875 C 1.945312 -1.25 2.0625 -1.757812 2.0625 -2.5 L 2.0625 -11.015625 C 2.0625 -11.835938 1.945312 -12.4375 1.71875 -12.8125 C 1.5 -13.1875 1.113281 -13.375 0.5625 -13.375 L 0.5625 -13.9375 C 1.132812 -13.882812 1.691406 -13.859375 2.234375 -13.859375 C 4.085938 -13.859375 5.644531 -13.984375 6.90625 -14.234375 Z M 6.90625 -2.5 "/></g></g></g><g fill="#5e17eb" fill-opacity="1"><g transform="translate(61.308965, 23.951615)"><g><path d="M 1.515625 -1.359375 C 1.710938 -1.359375 1.890625 -1.28125 2.046875 -1.125 C 2.203125 -0.976562 2.28125 -0.800781 2.28125 -0.59375 C 2.28125 -0.382812 2.203125 -0.203125 2.046875 -0.046875 C 1.890625 0.0976562 1.710938 0.171875 1.515625 0.171875 C 1.304688 0.171875 1.125 0.0976562 0.96875 -0.046875 C 0.8125 -0.203125 0.734375 -0.382812 0.734375 -0.59375 C 0.734375 -0.800781 0.8125 -0.976562 0.96875 -1.125 C 1.125 -1.28125 1.304688 -1.359375 1.515625 -1.359375 Z M 1.515625 -1.359375 "/></g></g></g><g fill="#000000" fill-opacity="1"><g transform="translate(64.325598, 23.951615)"><g><path d="M 1.21875 -1.015625 C 1.175781 -0.847656 1.15625 -0.707031 1.15625 -0.59375 C 1.15625 -0.382812 1.242188 -0.28125 1.421875 -0.28125 C 1.578125 -0.28125 1.722656 -0.367188 1.859375 -0.546875 C 2.003906 -0.734375 2.160156 -1.050781 2.328125 -1.5 L 2.484375 -1.9375 L 2.703125 -1.9375 L 2.40625 -1.0625 C 2.125 -0.238281 1.644531 0.171875 0.96875 0.171875 C 0.414062 0.171875 0.140625 -0.0859375 0.140625 -0.609375 C 0.140625 -0.804688 0.195312 -1.109375 0.3125 -1.515625 L 2.265625 -7.984375 C 2.304688 -8.128906 2.328125 -8.238281 2.328125 -8.3125 C 2.328125 -8.476562 2.265625 -8.59375 2.140625 -8.65625 C 2.015625 -8.726562 1.804688 -8.765625 1.515625 -8.765625 L 1.59375 -9.03125 C 2.007812 -9.03125 2.390625 -9.070312 2.734375 -9.15625 C 3.078125 -9.238281 3.40625 -9.359375 3.71875 -9.515625 Z M 1.21875 -1.015625 "/></g></g></g><g clip-path="url(#48e1502c02)"><g fill="#000000" fill-opacity="1"><g transform="translate(67.642893, 23.951615)"><g><path d="M 4.859375 -6.3125 C 5.273438 -6.3125 5.484375 -5.988281 5.484375 -5.34375 C 5.484375 -4.59375 5.242188 -3.71875 4.765625 -2.71875 C 4.296875 -1.71875 3.75 -0.820312 3.125 -0.03125 C 2.382812 0.894531 1.597656 1.554688 0.765625 1.953125 C 0.335938 2.148438 -0.0078125 2.25 -0.28125 2.25 C -0.445312 2.25 -0.585938 2.203125 -0.703125 2.109375 C -0.816406 2.023438 -0.875 1.910156 -0.875 1.765625 C -0.875 1.597656 -0.804688 1.460938 -0.671875 1.359375 C -0.546875 1.265625 -0.398438 1.21875 -0.234375 1.21875 C -0.0546875 1.21875 0.101562 1.257812 0.25 1.34375 C 0.40625 1.425781 0.578125 1.539062 0.765625 1.6875 C 1.390625 1.351562 1.988281 0.875 2.5625 0.25 L 1.671875 -5.109375 C 1.628906 -5.359375 1.582031 -5.53125 1.53125 -5.625 C 1.476562 -5.71875 1.398438 -5.765625 1.296875 -5.765625 C 1.191406 -5.765625 1.082031 -5.6875 0.96875 -5.53125 C 0.863281 -5.375 0.738281 -5.085938 0.59375 -4.671875 L 0.4375 -4.21875 L 0.203125 -4.21875 L 0.5 -5.09375 C 0.78125 -5.90625 1.238281 -6.3125 1.875 -6.3125 C 2.132812 -6.3125 2.328125 -6.234375 2.453125 -6.078125 C 2.585938 -5.921875 2.679688 -5.632812 2.734375 -5.21875 L 3.34375 -0.71875 C 3.789062 -1.320312 4.171875 -1.957031 4.484375 -2.625 C 4.804688 -3.289062 5.03125 -3.953125 5.15625 -4.609375 C 4.914062 -4.734375 4.703125 -4.890625 4.515625 -5.078125 C 4.335938 -5.265625 4.25 -5.472656 4.25 -5.703125 C 4.25 -5.890625 4.304688 -6.035156 4.421875 -6.140625 C 4.535156 -6.253906 4.679688 -6.3125 4.859375 -6.3125 Z M 4.859375 -6.3125 "/></g></g></g></g></svg>